<?xml version="1.0" encoding="UTF-8" standalone="no"?>
<!-- Created with Inkscape (http://www.inkscape.org/) -->

<svg
   width="210mm"
   height="297mm"
   viewBox="0 0 210 297"
   version="1.1"
   id="svg1"
   xml:space="preserve"
   xmlns="http://www.w3.org/2000/svg"
   xmlns:svg="http://www.w3.org/2000/svg"><defs
     id="defs1"><clipPath
       clipPathUnits="userSpaceOnUse"
       id="clipPath2"><rect
         style="fill:#a4d97d;fill-opacity:1;stroke-width:0.516969"
         id="rect2"
         width="22.718424"
         height="8.6896439"
         x="44.870247"
         y="99.833809"
         ry="1.2279826" /></clipPath><clipPath
       clipPathUnits="userSpaceOnUse"
       id="clipPath8"><ellipse
         style="fill:#58bce0;fill-opacity:1;stroke-width:1"
         id="ellipse9"
         cx="100.06237"
         cy="135.74852"
         rx="63.564575"
         ry="63.199261" /></clipPath><clipPath
       clipPathUnits="userSpaceOnUse"
       id="clipPath15"><ellipse
         style="fill:#58bce0;fill-opacity:1;stroke-width:1"
         id="ellipse16"
         cx="100.06237"
         cy="135.74852"
         rx="63.564575"
         ry="63.199261" /></clipPath><clipPath
       clipPathUnits="userSpaceOnUse"
       id="clipPath36"><ellipse
         style="fill:#58bce0;fill-opacity:1;stroke-width:1"
         id="ellipse37"
         cx="100.06237"
         cy="135.74852"
         rx="63.564575"
         ry="63.199261" /></clipPath><clipPath
       clipPathUnits="userSpaceOnUse"
       id="clipPath39"><ellipse
         style="fill:#58bce0;fill-opacity:1;stroke-width:1"
         id="ellipse40"
         cx="100.06237"
         cy="135.74852"
         rx="63.564575"
         ry="63.199261" /></clipPath><clipPath
       clipPathUnits="userSpaceOnUse"
       id="clipPath50"><ellipse
         style="fill:#58bce0;fill-opacity:1;stroke-width:1.29507"
         id="ellipse51"
         cx="99.943504"
         cy="179.14944"
         rx="63.564575"
         ry="106.00523" /></clipPath><clipPath
       clipPathUnits="userSpaceOnUse"
       id="clipPath56"><ellipse
         style="fill:#58bce0;fill-opacity:1;stroke-width:1.29507"
         id="ellipse57"
         cx="100.19578"
         cy="179.99088"
         rx="63.564575"
         ry="106.00523" /></clipPath></defs><g
     id="layer1"><path
       id="path5"
       style="fill:#58bce0;fill-opacity:0.1;stroke-width:1.61712"
       d="m 206.07597,150.73845 a 102.49999,102.49999 0 0 1 -102.5,102.50003 A 102.49999,102.49999 0 0 1 1.0759499,150.73845 102.49999,102.49999 0 0 1 103.57597,48.238483 a 102.49999,102.49999 0 0 1 102.5,102.499967 z" /><path
       id="path4"
       style="fill:#58bce0;fill-opacity:0.1;stroke-width:1.48905"
       d="M 198.21391,151.635 A 94.381388,94.381397 0 0 1 103.83253,246.01639 94.381388,94.381397 0 0 1 9.4511292,151.635 94.381388,94.381397 0 0 1 103.83253,57.253594 94.381388,94.381397 0 0 1 198.21391,151.635 Z" /><path
       id="path3"
       style="fill:#58bce0;fill-opacity:0.1;stroke-width:1.55995"
       d="M 202.47491,151.14522 A 98.875745,98.875745 0 0 1 103.59918,250.02097 98.875745,98.875745 0 0 1 4.7234259,151.14522 98.875745,98.875745 0 0 1 103.59918,52.269504 98.875745,98.875745 0 0 1 202.47491,151.14522 Z" /><path
       id="path1"
       style="fill:#58bce0;stroke-width:1.41814"
       d="m 193.9688,151.96673 a 89.886995,89.887037 0 0 1 -89.887,89.88704 89.886995,89.887037 0 0 1 -89.886992,-89.88704 89.886995,89.887037 0 0 1 89.886992,-89.887029 89.886995,89.887037 0 0 1 89.887,89.887029 z" /><path
       id="rect3"
       clip-path="none"
       style="fill:#a4d97d;stroke-width:1.41819"
       d="M 54.376204,77.067728 C 49.1581,80.592799 44.139212,84.632487 39.770478,89.167783 l 23.851823,0.0056 c 1.81995,4.26e-4 3.285437,-1.473547 3.285437,-3.304019 v -5.515986 c 0,-1.830471 -1.46549,-3.307638 -3.285437,-3.304017 z" /><rect
       style="fill:#a4d97d;fill-opacity:1;stroke-width:1.31421"
       id="rect4"
       width="32.937744"
       height="13.226304"
       x="77.257454"
       y="113.93601"
       ry="3.3041048" /><rect
       style="fill:#a4d97d;fill-opacity:1;stroke-width:1.59824"
       id="rect5"
       width="17.165503"
       height="19.10466"
       x="77.19429"
       y="117.60997"
       ry="3.3041048" /><path
       id="rect6"
       clip-path="none"
       style="fill:#a4d97d;stroke-width:1.75904"
       d="m 32.802647,97.196094 c -3.544451,4.589236 -6.597094,9.534316 -9.193533,14.719186 h 26.55663 c 1.819952,0 3.284973,-1.47357 3.284973,-3.30404 v -8.08748 c 0,-1.830472 -1.465022,-3.301538 -3.284973,-3.304018 z" /><path
       id="rect7"
       clip-path="none"
       style="fill:#a4d97d;stroke-width:1.05314"
       d="m 104.03492,61.860796 c -6.564943,0.07662 -13.107307,0.870402 -19.49895,2.370829 l 0.0056,2.319733 c 0.0025,1.009422 1.465022,1.82225 3.284973,1.82225 h 46.396067 c 0.71707,0 1.39751,-0.162069 1.93651,-0.376714 -10.23336,-4.000913 -21.13676,-6.059167 -32.12417,-6.136098 z" /><path
       id="rect9"
       clip-path="none"
       style="fill:#a4d97d;stroke-width:1.41819"
       d="m 161.44445,91.465119 c -1.81995,-0.0015 -3.28497,1.47401 -3.28497,3.304483 v 6.617798 c 0,1.83045 1.46502,3.30631 3.28497,3.30401 l 19.07208,-0.0241 c -2.92456,-4.708212 -6.209,-9.104024 -9.94911,-13.194482 z" /><path
       id="rect11"
       clip-path="none"
       style="fill:#a4d97d;stroke-width:1.41819"
       d="m 177.21324,101.44452 c -1.81969,-0.0311 -3.28499,1.47355 -3.28499,3.30403 v 38.94913 c 0,1.83048 1.46504,3.30402 3.28499,3.30402 h 16.61065 c -0.88741,-16.2983 -6.22225,-32.02634 -15.3823,-45.53615 z" /><rect
       style="fill:#a4d97d;fill-opacity:1;stroke-width:1.41814"
       id="rect13"
       width="47.852444"
       height="19.472057"
       x="141.20776"
       y="127.52972"
       ry="3.3041048" /><rect
       style="fill:#a4d97d;fill-opacity:1;stroke-width:1.41814"
       id="rect14"
       width="48.948299"
       height="15.430687"
       x="121.11704"
       y="142.593"
       ry="3.3041048" /><path
       id="rect15"
       clip-path="none"
       style="fill:#a4d97d;stroke-width:1.21416"
       d="m 187.50546,143.51141 c -1.22888,-0.003 -2.21802,1.59987 -2.21802,3.58691 v 23.13695 c 0,1.98704 0.98931,3.56606 2.21802,3.58644 l 3.7518,0.0622 c 1.8552,-7.13895 2.70944,-14.54136 2.77123,-21.91717 -0.003,-2.82328 -0.19431,-5.63372 -0.46266,-8.44422 z" /><rect
       style="fill:#a4d97d;fill-opacity:1;stroke-width:1.5356"
       id="rect17"
       width="12.419704"
       height="13.961099"
       x="152.89687"
       y="155.4519"
       ry="3.5866928" /><rect
       style="fill:#a4d97d;fill-opacity:1;stroke-width:1.699"
       id="rect18"
       width="21.003922"
       height="11.205618"
       x="152.83055"
       y="161.94058"
       ry="4.2074666" /><rect
       style="fill:#a4d97d;fill-opacity:1;stroke-width:1.41814"
       id="rect19"
       width="40.546738"
       height="11.021919"
       x="88.241272"
       y="171.61739"
       ry="3.5866928" /><rect
       style="fill:#a4d97d;fill-opacity:1;stroke-width:1.41814"
       id="rect20"
       width="63.559719"
       height="12.124111"
       x="78.378586"
       y="181.53712"
       ry="3.5866928" /><rect
       style="fill:#a4d97d;fill-opacity:1;stroke-width:1.41814"
       id="rect21"
       width="68.673752"
       height="15.430687"
       x="86.414948"
       y="192.19165"
       ry="3.5866928" /><rect
       style="fill:#a4d97d;fill-opacity:1;stroke-width:1.41814"
       id="rect22"
       width="46.391293"
       height="11.389317"
       x="98.104057"
       y="206.52014"
       ry="3.5866928" /><rect
       style="fill:#a4d97d;fill-opacity:1;stroke-width:1.41814"
       id="rect23"
       width="22.647738"
       height="12.124111"
       x="115.27258"
       y="216.07246"
       ry="3.5866928" /><rect
       style="fill:#a4d97d;fill-opacity:1;stroke-width:1.41814"
       id="rect24"
       width="12.784997"
       height="14.695891"
       x="110.37998"
       y="224.80086"
       ry="3.5866928" /><path
       id="rect25"
       clip-path="none"
       style="fill:#a4d97d;stroke-width:1.41819"
       d="m 17.510301,176.17475 c 1.359843,4.79108 2.96582,9.51161 5.099198,14.01187 h 0.783155 c 1.975606,0 3.565997,-1.59987 3.565997,-3.58689 v -6.7878 c 0,-1.98702 -1.590465,-3.56939 -3.565997,-3.58643 z" /><path
       id="rect26"
       clip-path="none"
       style="fill:#a4d97d;stroke-width:1.41819"
       d="m 21.87592,188.5387 a 89.886996,89.887037 0 0 0 7.324765,13.22628 h 9.301232 c 1.975605,0 3.565999,-1.59987 3.565999,-3.58688 v -6.05295 c 0,-1.98702 -1.590394,-3.58645 -3.565999,-3.58645 z" /><path
       id="rect28"
       clip-path="none"
       style="fill:#a4d97d;fill-opacity:1;stroke-width:1.41819"
       d="m 27.725438,199.48734 a 89.886996,89.887037 0 0 0 13.320121,16.53309 h 7.852443 c 1.975604,0 3.566462,-1.59988 3.566462,-3.5869 v -9.35929 c 0,-1.98704 -1.590858,-3.5869 -3.566462,-3.5869 z" /><path
       id="rect30"
       clip-path="none"
       style="fill:#a4d97d;stroke-width:1.41819"
       d="m 39.445443,212.56648 c -0.542492,0 -1.053901,0.12434 -1.513356,0.34049 a 89.886996,89.887037 0 0 0 11.018968,10.04907 c 0.05076,-0.24179 0.0785,-0.49227 0.0785,-0.74971 v -6.05297 c 0,-1.987 -1.590394,-3.58688 -3.565999,-3.58688 z" /><rect
       style="fill:#ffffff;fill-opacity:1;stroke-width:1.02482"
       id="rect32"
       width="34.2001"
       height="6.9506159"
       x="74.360474"
       y="176.76096"
       ry="2.1204667" /><rect
       style="fill:#ffffff;fill-opacity:1;stroke-width:0.942124"
       id="rect33"
       width="28.903463"
       height="6.9506159"
       x="65.534286"
       y="182.56963"
       ry="2.1204667" /><path
       id="rect34"
       clip-path="none"
       style="fill:#ffffff;stroke-width:1.41819"
       d="m 36.955708,211.83091 c 2.305583,2.58899 4.85005,5.07564 7.43903,7.38122 l 13.189135,-0.0545 c 1.167976,-0.005 2.108385,-0.94572 2.108385,-2.12046 v -3.10707 c 0,-1.17473 -0.940399,-2.12167 -2.108385,-2.12047 z" /><path
       id="rect35"
       clip-path="none"
       style="fill:#ffffff;stroke-width:1.25762"
       d="m 20.525744,118.79076 c -0.882452,2.08799 -1.569706,4.19742 -2.24411,6.34778 -0.09041,0.28829 -0.16782,0.58278 -0.258739,0.87234 l 25.289571,0.0124 c 1.167985,5.7e-4 2.108385,-0.74378 2.108385,-1.66758 v -3.88742 c 0,-0.9238 -0.940401,-1.66708 -2.108385,-1.66758 z" /><rect
       style="fill:#ffffff;fill-opacity:1;stroke-width:1.41814"
       id="rect37"
       width="33.606293"
       height="6.613152"
       x="23.585711"
       y="124.95793"
       ry="2.1204667" /><rect
       style="fill:#ffffff;fill-opacity:1;stroke-width:1.41814"
       id="rect38"
       width="29.953442"
       height="10.287125"
       x="137.18956"
       y="123.48833"
       ry="2.1204667" /><rect
       style="fill:#ffffff;fill-opacity:1;stroke-width:1.41814"
       id="rect40"
       width="36.163296"
       height="6.2457542"
       x="114.37655"
       y="92.58902"
       ry="3.0039942" /><rect
       style="fill:#ffffff;fill-opacity:1;stroke-width:1.41814"
       id="rect41"
       width="26.665873"
       height="7.3479457"
       x="142.66879"
       y="189.61986"
       ry="3.0039942" /><rect
       style="fill:#ffffff;fill-opacity:1;stroke-width:1.23705"
       id="rect42"
       width="13.880856"
       height="6.4294529"
       x="135.18048"
       y="193.11012"
       ry="2.2856479" /><rect
       style="fill:#ffffff;fill-opacity:1;stroke-width:1.41814"
       id="rect43"
       width="27.031137"
       height="6.2457542"
       x="74.360474"
       y="226.72699"
       ry="3.0039942" /><rect
       style="fill:#ffffff;fill-opacity:1;stroke-width:1.63817"
       id="rect44"
       width="37.011894"
       height="7.24793"
       x="87.460022"
       y="104.16687"
       ry="3.623965" /><rect
       style="fill:#ffffff;fill-opacity:1;stroke-width:2.23021"
       id="rect45"
       width="25.331432"
       height="6.6037874"
       x="80.696053"
       y="110.56696"
       ry="3.3018937" /><rect
       style="fill:#ffffff;fill-opacity:1;stroke-width:1.41814"
       id="rect46"
       width="18.994858"
       height="5.8783569"
       x="129.67938"
       y="118.23653"
       ry="1.653288" /><rect
       style="fill:#ffffff;fill-opacity:1;stroke-width:1.41814"
       id="rect47"
       width="20.821295"
       height="5.1435623"
       x="88.971931"
       y="220.11385"
       ry="1.653288" /><path
       id="rect48"
       clip-path="none"
       style="fill:#ffffff;stroke-width:1.41819"
       d="m 147.70442,208.83821 c -0.91068,-9e-4 -1.64388,0.74251 -1.64388,1.65842 v 3.67423 c 0,0.91592 0.7332,1.6518 1.64388,1.65317 l 19.64248,0.0297 c 2.27195,-2.21145 4.30639,-4.54682 6.33212,-6.98582 z" /><rect
       style="fill:#a4d97d;fill-opacity:1;stroke-width:0.821965"
       id="rect51"
       width="23.069134"
       height="8.0860882"
       x="110.36339"
       y="149.95732"
       ry="2.2575965" /></g></svg>
