<?xml version="1.0" encoding="UTF-8" standalone="no"?>
<!-- Created with Inkscape (http://www.inkscape.org/) -->

<svg
   width="210mm"
   height="297mm"
   viewBox="0 0 210 297"
   version="1.1"
   id="svg1"
   xml:space="preserve"
   xmlns="http://www.w3.org/2000/svg"
   xmlns:svg="http://www.w3.org/2000/svg"><defs
     id="defs1" /><g
     id="layer1"
     transform="translate(1.4612538,0.36531373)"><circle
       style="fill:#c2a69b;fill-opacity:1;stroke-width:2.63038"
       id="path1"
       cx="103.28781"
       cy="153.70111"
       r="100" /><path
       id="path2"
       style="fill:#bc9488;fill-opacity:1;stroke-width:1"
       d="m 103.28775,53.701115 a 100,100 0 0 0 -69.038161,27.97762 l 8.126636,2.708879 14.247192,1.460893 23.015133,-2.55695 13.516487,-10.228833 17.534843,-11.32489 6.82439,-7.01921 a 100,100 0 0 0 -14.22652,-1.017509 z" /><path
       id="path3"
       style="fill:#b38c85;fill-opacity:1;stroke-width:1"
       d="m 115.7056,54.589433 -0.31264,1.517737 -14.2012,11.841137 -12.785787,8.036719 -8.402071,6.941178 H 68.31366 L 52.97041,84.752966 39.08857,82.560852 35.20612,80.721688 A 100,100 0 0 0 23.693127,93.584985 l 20.875212,2.492355 36.165751,0.730704 29.59044,-10.594185 22.28443,-20.822502 6.57273,-4.759916 A 100,100 0 0 0 115.7056,54.589433 Z" /><path
       id="path4"
       style="fill:#b4765f;fill-opacity:1;stroke-width:1"
       d="m 162.83916,73.683875 -14.5216,8.146272 -10.95954,8.767424 -25.57208,9.498129 -17.534845,5.11442 -19.361609,4.74906 -21.919076,1.09606 -20.457666,-3.28766 -17.169494,0.73071 -0.487309,-0.97462 a 100,100 0 0 0 -5.1464561,11.64787 l 2.7109461,1.01647 11.32489,-1.82624 20.823018,2.9223 c 0,0 14.612702,2.55747 16.073954,2.55747 1.461253,0 23.014616,-2.55747 23.014616,-2.55747 l 16.438791,-4.74906 27.7642,-6.94067 17.53484,-9.49864 17.9002,-9.498129 14.81615,-3.134176 a 100,100 0 0 0 -15.27193,-13.77952 z" /><path
       id="path5"
       style="fill:#ab5035;fill-opacity:1;stroke-width:1"
       d="m 192.94223,109.76229 -3.3445,7.86877 -14.24719,-1.09605 -7.67137,-0.36536 -6.21047,5.11442 -7.67189,3.28765 -5.8446,-1.09554 0.36535,-4.38371 4.01836,-4.01887 -4.01836,-1.09554 -20.45766,16.07343 -26.30279,0.36536 -21.553208,-1.4609 -15.708602,8.76743 -17.535363,0.7307 -10.593669,-1.82676 c 0,0 -4.018631,-3.28766 -6.575826,-3.28766 -2.557193,0 -11.690243,3.28766 -11.690243,3.28766 L 5.4890706,134.02955 a 100,100 0 0 0 -1.2686564,6.63473 c 7.8346618,0.99339 25.4923848,3.19983 27.5616248,2.90422 2.557193,-0.36531 43.472799,1.46089 43.472799,1.46089 l 70.870612,-7.30601 34.3395,-5.47977 18.28571,-8.01967 a 100,100 0 0 0 -5.80843,-14.46165 z" /><path
       id="path6"
       style="fill:#ae6c52;fill-opacity:1;stroke-width:1"
       d="m 198.05303,122.35326 c -2.98152,1.19899 -20.98849,8.42894 -22.33714,8.42894 -1.46125,0 -37.26181,5.11441 -37.26181,5.11441 0,0 -36.53177,5.47981 -37.99303,5.84513 -1.461248,0.36531 -30.685981,1.82676 -30.685981,1.82676 L 37.627161,143.20315 15.708602,141.74174 4.2395345,140.39246 a 100,100 0 0 0 -0.9518799,13.30875 100,100 0 0 0 0.014469,0.20567 l 7.6574144,0.25529 22.283911,0.36535 c 0,0 18.99645,-0.73022 20.823018,-1.09554 1.826565,-0.36531 18.996257,0.36483 18.996257,0.36483 l 12.42043,2.19212 21.919076,-2.9223 17.53485,-3.65353 17.53536,-0.73019 16.07344,-4.38422 19.72696,-7.30602 14.24719,-4.38371 7.75715,-2.29857 a 100,100 0 0 0 -2.22415,-7.95713 z" /><path
       id="path7"
       style="fill:#c19588;fill-opacity:1;stroke-width:1"
       d="m 199.46121,128.22525 -28.49438,10.59418 -25.20673,8.76743 -17.53485,0.7307 -34.339508,6.57531 -12.055595,-2.1916 -32.147391,-0.7307 -35.070211,0.7307 -11.1962161,-0.79995 a 100,100 0 0 0 -0.1286743,1.79989 100,100 0 0 0 0.4862753,6.79442 c 2.3530792,0.059 4.9192507,0.0782 5.7241984,-0.12299 1.4612537,-0.36531 12.7859397,0 14.2471927,0 1.461253,0 10.228833,1.09606 10.228833,1.09606 l 19.361609,-1.82676 10.959537,4.01835 13.88184,1.09606 10.959538,0.73071 12.785782,-5.11442 17.9002,-2.55695 15.7086,-1.09606 14.61255,-5.47977 15.34325,-2.55695 21.18837,-6.94117 15.24041,-3.89899 a 100,100 0 0 0 -1.97817,-9.0935 z" /><path
       id="path8"
       style="fill:#b9826e;fill-opacity:1;stroke-width:1"
       d="m 200.92262,148.68291 c 0,0 -16.43907,2.19169 -18.99626,2.92231 -2.55719,0.73063 -19.72727,7.67144 -22.64978,8.40207 -2.9225,0.73063 -24.47602,5.47977 -24.47602,5.47977 l -24.11068,4.74906 -26.302266,2.19211 -15.34325,-0.36535 -3.653007,1.82625 -1.461409,3.28817 -4.749064,1.46089 -4.383712,-2.1916 -5.479769,-5.11441 -9.86348,1.09605 -12.785783,-0.36535 -12.420948,-2.92282 -9.6092322,0.3204 a 100,100 0 0 0 1.4944824,6.86935 l 1.5389242,-0.97927 c 0,0 26.6683736,2.55699 28.8602536,2.9223 2.191881,0.36532 12.055273,5.47985 13.88184,6.21047 1.826565,0.73063 16.804143,0 16.804143,0 l 24.110673,-4.01836 17.535364,-0.36535 c 0,0 17.16969,-4.3838 18.99626,-5.11442 1.82655,-0.73062 16.80414,-4.01835 16.80414,-4.01835 l 17.17001,-4.74907 14.24719,-1.46141 10.95954,-6.21047 10.95902,-0.73019 4.74906,2.1916 0.10697,-0.26769 a 100,100 0 0 0 0.43202,-6.03839 100,100 0 0 0 -0.35037,-4.89996 z" /><path
       id="path9"
       style="fill:#be9786;fill-opacity:1;stroke-width:1"
       d="m 190.69379,155.62358 -6.57583,2.9223 -9.49813,5.47977 h -6.94066 l -18.26607,4.01887 -23.37997,5.84461 -17.53484,5.47977 -9.863484,-0.73071 -17.535363,2.55747 -16.804143,2.9223 -14.247192,-0.36535 -5.845121,-4.01836 -17.170012,-3.28766 -14.247192,-2.55746 -6.9329103,1.15548 a 100,100 0 0 0 1.144633,5.26273 l 1.039213,-0.20774 14.2471923,1.82676 16.804659,5.84461 13.516488,3.28817 17.170011,-2.92282 h 18.996257 l 13.516484,0.7307 15.34325,-4.74906 21.55321,-6.57531 15.7086,-4.74906 16.07396,-1.09606 9.49812,-5.47977 9.49813,-3.65301 8.03672,0.73019 4.46484,1.91358 a 100,100 0 0 0 0.39791,-5.56503 l -3.03599,-3.28921 z" /><path
       id="path10"
       style="fill:#bc9282;fill-opacity:1;stroke-width:1"
       d="m 197.35333,161.18913 c 0,0 -8.78268,0.77463 -9.81594,0.77463 -1.03326,0 -11.36623,5.42499 -11.36623,5.42499 l -10.84895,3.8747 -11.10785,0.51676 c 0,0 -34.87256,10.84902 -35.90582,11.10733 -1.03327,0.25831 -18.340364,2.84169 -19.890258,2.84169 -1.549893,0 -16.01556,0.77463 -16.01556,0.77463 l -14.982548,0.77515 -14.723649,1.80816 -10.893909,-1.30845 -9.513114,-4.89118 -13.432255,-2.06654 -7.23315,-1.80815 -4.6632816,1.12551 a 100,100 0 0 0 1.449524,4.60954 l 2.9553756,-1.34359 c 0,0 13.432589,5.42467 14.724165,6.19962 1.291578,0.77494 12.657626,4.13308 12.657626,4.13308 0,0 29.705948,1.2914 30.739209,1.2914 1.033263,0 22.731945,-0.25839 22.731945,-0.25839 0,0 23.76512,-4.90791 26.34826,-5.68285 2.58316,-0.77495 10.84947,-4.64985 10.84947,-4.64985 l 12.39873,-0.25838 16.53232,-3.35794 11.10785,-4.90822 19.37349,-5.68286 8.52455,2.84169 4.26227,-2.13114 a 100,100 0 0 0 0.87902,-6.15208 z" /><path
       id="path11"
       style="fill:#ae6f53;fill-opacity:1;stroke-width:1"
       d="m 195.02841,169.71367 -9.81594,0.51625 -11.10785,1.55029 -13.43226,5.42448 -12.65762,5.16609 -11.88248,0.51676 -12.14086,2.58331 -10.84895,1.54978 -18.082103,5.16609 H 82.402722 l -19.890259,-0.25787 -21.956799,0.25787 -9.557556,-2.84117 -10.074321,-3.10007 -9.816455,-4.64933 -2.8763099,2.67064 a 100,100 0 0 0 2.5512659,6.84092 l 8.849589,1.07901 14.982548,4.13308 14.207401,1.29191 21.181653,0.25838 16.273942,1.80816 19.631879,-0.77515 16.01556,-4.64984 18.0821,-1.54978 12.65762,-4.64984 13.17439,-5.1661 13.17388,-3.61631 6.97425,-3.8747 h 9.81645 l 4.73615,0.48989 a 100,100 0 0 0 0.96686,-4.4452 z" /><path
       id="path12"
       style="fill:#b06045;fill-opacity:1;stroke-width:1"
       d="m 188.05364,174.75057 -5.94124,2.06654 -18.98592,5.81205 -20.92379,8.39536 -21.56923,3.09955 -13.17387,2.97088 -9.687263,1.93735 -14.465267,-0.64596 -12.270052,-1.03301 -20.01945,-0.38757 -7.749915,-0.25839 -13.432255,-2.32492 -5.424475,-2.32492 -8.136971,-1.16221 -4.908227,-0.25838 -0.641822,0.31368 a 100,100 0 0 0 1.939933,4.91288 c 3.421055,-0.22373 6.712342,-0.44752 6.968051,-0.44752 0.51663,0 8.782926,5.16609 8.782926,5.16609 l 17.565336,1.80816 c 0,0 24.798136,0.51676 25.443925,0.51676 0.645789,0 24.411047,-3e-5 24.927678,-0.12919 0.516632,-0.12916 23.894148,-2.32492 23.894148,-2.32492 l 25.57312,-5.29528 16.27394,-4.00389 12.78681,-4.77904 6.84558,-5.81205 15.11122,-2.45411 3.25562,-0.16692 a 100,100 0 0 0 0.48886,-2.24534 z" /><path
       id="path13"
       style="fill:#ab5637;fill-opacity:1;stroke-width:1"
       d="m 200.1945,177.33388 -14.07821,1.80816 -6.3283,1.42058 -6.07043,5.55367 -13.69115,5.2958 -22.21518,5.16609 -31.38517,4.90823 -30.868915,0.77463 -27.381274,-1.42059 -13.819829,-0.38757 -9.815938,-3.09955 -4.00389,-2.45412 -4.779036,0.51677 -3.064413,0.50023 a 100,100 0 0 0 2.622579,4.8028 l 3.15433,-0.13694 3.099552,1.67897 c 0,0 13.820129,3.10007 14.982548,3.10007 1.162419,0 15.369605,0.38757 15.369605,0.38757 l 23.894148,3.74551 21.698417,-1.4211 19.244816,-4.64933 27.25209,-3.35845 16.01556,-3.61632 13.30358,-4.13308 7.23263,-5.42448 4.13308,-3.61631 8.91212,-1.67897 5.66891,0.0961 a 100,100 0 0 0 0.94567,-4.34806 z" /><path
       id="path14"
       style="fill:#c9beb0;fill-opacity:1;stroke-width:1"
       d="m 192.70348,180.821 -9.29917,2.32493 -6.97477,7.49101 -8.26616,2.58331 -13.17387,3.8747 -18.59887,3.09955 -13.43225,2.32492 -9.81594,0.77515 -11.10785,3.09955 -6.974253,0.51676 -13.949019,1.54978 -11.107849,-0.25838 -14.207402,-3.09955 -13.949019,-1.03353 -10.84895,-0.51625 -7.491532,-2.32492 -4.649329,-2.06654 -3.766695,1.14618 a 100,100 0 0 0 3.335197,6.10815 l 6.114355,1.52859 24.281722,4.90771 22.731429,4.64985 38.747505,-5.68286 36.93935,-8.52454 17.56533,-2.06654 9.29918,-4.39147 8.00778,-5.16609 3.8747,-4.13308 6.97477,-1.55029 4.87567,-0.3607 a 100,100 0 0 0 1.57458,-4.55683 z" /><path
       id="path15"
       style="fill:#bf9484;fill-opacity:1;stroke-width:1"
       d="m 190.69379,185.21402 -5.66219,2.73988 -6.02806,5.29684 -13.88184,7.67188 h -8.585 l -17.9002,3.65301 -14.61255,3.653 -10.59418,2.00918 -25.936919,2.37454 -15.160832,3.65352 -12.603365,-2.92282 -27.581262,-5.29683 -8.767424,-2.55747 -4.741312,1.31723 a 100,100 0 0 0 2.884061,4.1119 l 8.79843,1.51205 16.987076,3.28765 13.33407,6.39289 c 0,0 11.507385,1.279 12.238013,1.279 0.730624,0 21.187854,-4.2013 21.187854,-4.2013 l 37.26233,-7.30601 19.54402,-0.36535 16.25637,-5.66271 9.49813,-3.65301 5.11442,-6.94117 4.56664,-4.38372 7.1236,-2.19159 3.08353,0.48162 a 100,100 0 0 0 1.4087,-3.776 z" /><path
       id="path16"
       style="fill:#b0664e;fill-opacity:1;stroke-width:1"
       d="m 190.63694,188.31202 -6.97425,3.8747 -7.23315,9.55807 -24.15253,9.16998 -11.23652,-0.51676 -13.56145,1.16272 -30.09377,6.19962 -25.702824,4.77852 -13.561446,-2.84117 -8.00778,-4.39146 -19.373494,-3.74551 -6.458004,-1.4211 -2.930054,0.54932 a 100,100 0 0 0 4.919597,6.57221 l 9.634554,1.14463 12.01167,5.42499 16.144751,5.0369 24.927677,-3.22874 13.173873,-4.13308 32.54788,-4.13308 10.97866,-0.12919 18.59835,-3.35794 13.69064,-5.55418 5.68337,-8.52403 8.9116,-6.19962 2.40296,-0.31161 a 100,100 0 0 0 1.62935,-4.36976 z" /><path
       id="path17"
       style="fill:#cdada3;fill-opacity:1;stroke-width:1"
       d="m 195.16121,192.8027 -4.10207,0.63097 -7.30653,5.47977 -6.94066,9.31519 -10.04642,3.83595 -13.88184,3.28765 -10.59418,0.54829 -20.09232,2.00918 -14.61254,1.64382 -9.315196,2.55695 -10.594185,2.73989 -14.612545,2.00918 -9.863481,0.91364 -15.89102,-6.21048 -14.430126,-4.93148 h -7.078638 a 100,100 0 0 0 8.772074,9.41441 l 6.343799,2.45825 18.44797,10.22883 17.900716,2.1916 32.695162,-6.94118 24.29361,-1.09554 32.33032,-8.95035 15.70861,-12.23802 4.15685,-2.64531 a 100,100 0 0 0 8.71264,-16.25121 z" /><path
       id="path18"
       style="fill:#b4765f;fill-opacity:1;stroke-width:1"
       d="m 133.54947,241.26693 -13.69115,3.8747 -15.75718,-3.09956 -17.048572,4.39095 -12.383741,3.05098 a 100,100 0 0 0 28.618923,4.21731 100,100 0 0 0 47.30409,-12.18375 z" /></g></svg>
