<?xml version="1.0" encoding="UTF-8" standalone="no"?>
<!-- Created with Inkscape (http://www.inkscape.org/) -->

<svg
   width="210mm"
   height="297mm"
   viewBox="0 0 210 297"
   version="1.1"
   id="svg1"
   xml:space="preserve"
   xmlns="http://www.w3.org/2000/svg"
   xmlns:svg="http://www.w3.org/2000/svg"><defs
     id="defs1" /><g
     id="layer1"
     transform="matrix(0.89622144,0,0,0.89622144,18.777464,12.441658)"><circle
       style="fill:#ea292c;fill-opacity:1;stroke-width:1.43792"
       id="path1"
       cx="104.93173"
       cy="163.56456"
       r="100" /><path
       id="circle12"
       style="fill:#f05943;fill-opacity:1;stroke-width:1.43792"
       d="M 104.93158,63.564596 A 100,100 0 0 0 4.9314819,163.56469 100,100 0 0 0 12.523783,201.23216 100,100 0 0 0 94.702747,244.56802 100,100 0 0 0 194.70284,144.56844 100,100 0 0 0 186.8997,106.33356 100,100 0 0 0 104.93158,63.564596 Z" /><ellipse
       style="fill:#aa130f;fill-opacity:1;stroke-width:0.863731"
       id="path2"
       cx="92.218735"
       cy="133.03262"
       rx="12.14084"
       ry="11.107577" /><path
       id="ellipse2"
       style="fill:#ef3631;fill-opacity:1;stroke-width:0.863731"
       d="m 94.931156,122.8292 a 12.14084,11.107577 0 0 0 -12.140861,11.10733 12.14084,11.107577 0 0 0 6.654375,9.8826 12.14084,11.107577 0 0 0 2.77399,0.32091 12.14084,11.107577 0 0 0 12.14086,-11.10733 12.14084,11.107577 0 0 0 -6.737055,-9.92395 12.14084,11.107577 0 0 0 -2.691309,-0.27956 z" /><ellipse
       style="fill:#aa130f;fill-opacity:1;stroke-width:0.863731"
       id="ellipse3"
       cx="114.95052"
       cy="106.94273"
       rx="12.14084"
       ry="11.107577" /><path
       id="path3"
       style="fill:#ef3631;fill-opacity:1;stroke-width:0.863731"
       d="m 117.66294,96.739308 a 12.14084,11.107577 0 0 0 -12.14086,11.107332 12.14084,11.107577 0 0 0 6.65438,9.8826 12.14084,11.107577 0 0 0 2.77399,0.32091 12.14084,11.107577 0 0 0 12.14086,-11.10733 12.14084,11.107577 0 0 0 -6.73706,-9.923952 12.14084,11.107577 0 0 0 -2.69131,-0.27956 z" /><ellipse
       style="fill:#aa130f;fill-opacity:1;stroke-width:0.344267"
       id="ellipse4"
       cx="62.585396"
       cy="149.62215"
       rx="4.9258947"
       ry="4.3492746" /><path
       id="path4"
       style="fill:#ef3631;fill-opacity:1;stroke-width:0.344267"
       d="m 63.685902,145.62689 a 4.9258951,4.3492746 0 0 0 -4.925904,4.34918 4.9258951,4.3492746 0 0 0 2.699876,3.86962 4.9258951,4.3492746 0 0 0 1.125489,0.12566 4.9258951,4.3492746 0 0 0 4.925903,-4.34918 4.9258951,4.3492746 0 0 0 -2.733421,-3.88581 4.9258951,4.3492746 0 0 0 -1.091943,-0.10947 z" /><ellipse
       style="fill:#aa130f;fill-opacity:1;stroke-width:0.566702"
       id="ellipse5"
       cx="49.338318"
       cy="113.65894"
       rx="7.7494717"
       ry="7.4911566" /><path
       id="path5"
       style="fill:#ef3631;fill-opacity:1;stroke-width:0.566702"
       d="m 51.069651,106.77756 a 7.7494719,7.4911564 0 0 0 -7.749485,7.49099 7.7494719,7.4911564 0 0 0 4.247473,6.66501 7.7494719,7.4911564 0 0 0 1.770632,0.21643 7.7494719,7.4911564 0 0 0 7.749485,-7.49099 7.7494719,7.4911564 0 0 0 -4.300248,-6.6929 7.7494719,7.4911564 0 0 0 -1.717857,-0.18854 z" /><ellipse
       style="fill:#aa130f;fill-opacity:1;stroke-width:0.263085"
       id="ellipse6"
       cx="80.594528"
       cy="90.281372"
       rx="3.8747354"
       ry="3.2289464" /><path
       id="path6"
       style="fill:#ef3631;fill-opacity:1;stroke-width:0.263085"
       d="m 81.460192,87.315255 a 3.8747354,3.2289464 0 0 0 -3.874742,3.228875 3.8747354,3.2289464 0 0 0 2.123736,2.872847 3.8747354,3.2289464 0 0 0 0.885316,0.09329 3.8747354,3.2289464 0 0 0 3.874742,-3.228873 3.8747354,3.2289464 0 0 0 -2.150124,-2.884871 3.8747354,3.2289464 0 0 0 -0.858928,-0.08127 z" /><ellipse
       style="fill:#aa130f;fill-opacity:1;stroke-width:1.41113"
       id="ellipse7"
       cx="125.73626"
       cy="228.92746"
       rx="19.355783"
       ry="18.596506" /><path
       id="path7"
       style="fill:#ef3631;fill-opacity:1;stroke-width:1.41113"
       d="m 130.06059,211.84471 a 19.355785,18.596507 0 0 0 -19.35582,18.59609 19.355785,18.596507 0 0 0 10.60889,16.54562 19.355785,18.596507 0 0 0 4.42249,0.53728 19.355785,18.596507 0 0 0 19.35581,-18.59609 19.355785,18.596507 0 0 0 -10.74069,-16.61486 19.355785,18.596507 0 0 0 -4.29068,-0.46804 z" /><ellipse
       style="fill:#aa130f;fill-opacity:1;stroke-width:1.0549"
       id="ellipse8"
       cx="148.06628"
       cy="151.74086"
       rx="14.835258"
       ry="13.559349" /><path
       id="path8"
       style="fill:#ef3631;fill-opacity:1;stroke-width:1.0549"
       d="m 151.38067,139.28524 a 14.835259,13.559349 0 0 0 -14.83529,13.55904 14.835259,13.559349 0 0 0 8.1312,12.06398 14.835259,13.559349 0 0 0 3.38962,0.39175 14.835259,13.559349 0 0 0 14.83528,-13.55905 14.835259,13.559349 0 0 0 -8.23221,-12.11446 14.835259,13.559349 0 0 0 -3.2886,-0.34126 z" /><ellipse
       style="fill:#aa130f;fill-opacity:1;stroke-width:0.512135"
       id="ellipse9"
       cx="168.73155"
       cy="187.77591"
       rx="7.3441005"
       ry="6.4556656" /><path
       id="path9"
       style="fill:#ef3631;fill-opacity:1;stroke-width:0.512135"
       d="m 170.37231,181.84573 a 7.3441012,6.4556656 0 0 0 -7.34411,6.45552 7.3441012,6.4556656 0 0 0 4.02529,5.74372 7.3441012,6.4556656 0 0 0 1.67801,0.18651 7.3441012,6.4556656 0 0 0 7.34412,-6.45552 7.3441012,6.4556656 0 0 0 -4.07531,-5.76775 7.3441012,6.4556656 0 0 0 -1.628,-0.16248 z" /><ellipse
       style="fill:#aa130f;fill-opacity:1;stroke-width:0.19614"
       id="ellipse10"
       cx="142.89998"
       cy="197.33359"
       rx="2.6944168"
       ry="2.5809293" /><path
       id="path10"
       style="fill:#ef3631;fill-opacity:1;stroke-width:0.19614"
       d="m 143.50194,194.96275 a 2.694417,2.5809292 0 0 0 -2.69442,2.58087 2.694417,2.5809292 0 0 0 1.4768,2.2963 2.694417,2.5809292 0 0 0 0.61563,0.0746 2.694417,2.5809292 0 0 0 2.69443,-2.58087 2.694417,2.5809292 0 0 0 -1.49516,-2.30591 2.694417,2.5809292 0 0 0 -0.59728,-0.065 z" /><ellipse
       style="fill:#aa130f;fill-opacity:1;stroke-width:0.503577"
       id="ellipse11"
       cx="64.127953"
       cy="198.70451"
       rx="6.8274689"
       ry="6.7139812" /><path
       id="path11"
       style="fill:#ef3631;fill-opacity:1;stroke-width:0.503577"
       d="m 65.653293,192.53705 a 6.8274696,6.7139814 0 0 0 -6.827482,6.71383 6.8274696,6.7139814 0 0 0 3.742131,5.97354 6.8274696,6.7139814 0 0 0 1.559968,0.19398 6.8274696,6.7139814 0 0 0 6.827479,-6.71384 6.8274696,6.7139814 0 0 0 -3.788621,-5.99853 6.8274696,6.7139814 0 0 0 -1.513475,-0.16898 z" /><ellipse
       style="fill:#aa130f;fill-opacity:1;stroke-width:0.256141"
       id="ellipse12"
       cx="64.321693"
       cy="211.6203"
       rx="3.5339429"
       ry="3.3558762" /><path
       id="path12"
       style="fill:#ef3631;fill-opacity:1;stroke-width:0.256141"
       d="m 65.111218,208.53759 a 3.5339433,3.3558764 0 0 0 -3.53395,3.3558 3.5339433,3.3558764 0 0 0 1.936952,2.98578 3.5339433,3.3558764 0 0 0 0.807449,0.097 3.5339433,3.3558764 0 0 0 3.533948,-3.35581 3.5339433,3.3558764 0 0 0 -1.961015,-2.99826 3.5339433,3.3558764 0 0 0 -0.783384,-0.0845 z" /></g><path
     id="path5-1"
     style="fill:#f08575;fill-opacity:0.1;stroke-width:1.61712"
     d="m 215.25082,158.03378 a 102.49999,102.49999 0 0 1 -102.5,102.50003 A 102.49999,102.49999 0 0 1 10.250799,158.03378 102.49999,102.49999 0 0 1 112.75082,55.533826 a 102.49999,102.49999 0 0 1 102.5,102.499954 z" /><path
     id="path4-4"
     style="fill:#f08575;fill-opacity:0.1;stroke-width:1.48905"
     d="M 207.38876,158.93033 A 94.381388,94.381397 0 0 1 113.00738,253.31172 94.381388,94.381397 0 0 1 18.625979,158.93033 94.381388,94.381397 0 0 1 113.00738,64.548937 94.381388,94.381397 0 0 1 207.38876,158.93033 Z" /><path
     id="path3-8"
     style="fill:#f08575;fill-opacity:0.1;stroke-width:1.55995"
     d="M 211.64976,158.44055 A 98.875745,98.875745 0 0 1 112.77403,257.3163 98.875745,98.875745 0 0 1 13.898279,158.44055 98.875745,98.875745 0 0 1 112.77403,59.564847 98.875745,98.875745 0 0 1 211.64976,158.44055 Z" /></svg>
