<?xml version="1.0" encoding="UTF-8" standalone="no"?>
<!-- Created with Inkscape (http://www.inkscape.org/) -->

<svg
   width="210mm"
   height="297mm"
   viewBox="0 0 210 297"
   version="1.1"
   id="svg1"
   xml:space="preserve"
   xmlns="http://www.w3.org/2000/svg"
   xmlns:svg="http://www.w3.org/2000/svg"><defs
     id="defs1" /><g
     id="layer1"><circle
       style="fill:#685e52;fill-opacity:1;stroke-width:1.89073"
       id="circle46"
       cx="103.8"
       cy="145.89999"
       r="100" /><circle
       style="fill:#988977;fill-opacity:1;stroke-width:1.89073"
       id="path1"
       cx="103.80811"
       cy="145.91003"
       r="100" /><path
       id="rect8"
       style="fill:#8b7862"
       d="M 117.93957 46.92065 A 100 100 0 0 0 156.3641 60.961137 A 100 100 0 0 0 117.93957 46.92065 z " /><rect
       style="fill:#8b7862;fill-opacity:1;stroke-width:1"
       id="rect9"
       width="4.7490773"
       height="12.05535"
       x="82.301453"
       y="203.83093"
       ry="2.3745387"
       transform="rotate(-34.349139)" /><rect
       style="fill:#a4988a;fill-opacity:1;stroke-width:0.740835"
       id="rect26"
       width="26.667896"
       height="8.4208937"
       x="130.4921"
       y="112.43306"
       ry="4.2104468"
       transform="rotate(-8.9893984)" /><rect
       style="fill:#a4988a;fill-opacity:1;stroke-width:0.813861"
       id="rect31"
       width="8.0615873"
       height="26.987494"
       x="195.01015"
       y="102.86337"
       ry="4.0307937"
       transform="matrix(0.89847112,0.43903263,-0.43967167,0.89815857,0,0)" /><rect
       style="fill:#a4988a;fill-opacity:1;stroke-width:1"
       id="rect33"
       width="5.425571"
       height="7.6706357"
       x="-53.657272"
       y="206.50737"
       ry="2.7127855"
       transform="rotate(-54.986827)" /><rect
       style="fill:#a4988a;fill-opacity:1;stroke-width:1"
       id="rect34"
       width="16.370258"
       height="8.7931681"
       x="-120.84064"
       y="200.55148"
       ry="4.396584"
       transform="rotate(-63.774471)" /><rect
       style="fill:#a4988a;fill-opacity:1;stroke-width:0.740835"
       id="rect36"
       width="26.667896"
       height="8.4208937"
       x="117.49185"
       y="105.98286"
       ry="4.2104468"
       transform="rotate(-8.9893984)" /><rect
       style="fill:#a4988a;fill-opacity:1;stroke-width:0.452163"
       id="rect37"
       width="18.623083"
       height="4.4920316"
       x="99.549896"
       y="26.542908"
       ry="2.2460158"
       transform="rotate(23.581502)" /><rect
       style="fill:#a4988a;fill-opacity:1;stroke-width:0.452163"
       id="rect38"
       width="18.623083"
       height="4.4920316"
       x="110.58812"
       y="19.807716"
       ry="2.2460158"
       transform="rotate(23.581502)" /><path
       style="fill:#8b7862;fill-opacity:1;stroke-width:1"
       d="m 74.648373,104.20838 18.70887,-18.895947 2.806329,-0.935443 2.24507,1.683798 0.37417,4.115951 -0.37417,5.799748 7.483528,3.36759 9.16736,4.303043 14.59291,5.61266 5.42557,5.23848 1.8709,6.17393 -2.61925,6.17392 -5.23848,2.61925 -5.98684,3.1805 -1.6838,3.55469 1.49672,5.42557 -1.68381,8.98026 v 12.16076 l -3.55468,7.29646 -6.36103,2.61924 -11.599488,-0.18709 -11.225319,7.10937 -4.11594,0.18709 -11.7866,-7.10937 -0.93544,-3.92887 0.74835,-8.60607 3.36762,-6.36102 3.1805,-9.54152 1.87087,-9.54152 -1.87087,-3.74178 -8.60608,-9.35443 -0.56128,-3.18051 3.36761,-6.17392 0.93544,-3.74177 z"
       id="path43" /><path
       id="path44"
       style="fill:#8b7862;fill-opacity:1;stroke-width:1"
       d="M 46.382699,64.050354 C 38.689181,69.430233 31.807063,75.899752 25.908496,83.203191 l 0.198438,0.715201 -1.984375,5.027084 -4.894792,8.334375 -0.529167,6.614589 1.322917,6.21771 h 4.365625 l 1.5875,1.98437 3.307292,-0.13229 4.630208,-3.70417 4.497917,-5.42395 11.641666,-9.525009 13.890625,-8.598959 4.101042,-2.778125 3.042708,-5.688541 5.027084,-3.96875 -0.661459,-1.984375 -3.042708,0.529166 -7.408333,0.264584 H 59.312142 L 55.2111,68.837142 51.374642,67.514226 45.950684,67.249642 47.009017,64.206934 Z" /><path
       id="path45"
       style="fill:#8b7862;fill-opacity:1;stroke-width:1"
       d="m 174.58883,121.96826 -3.55482,1.87069 -2.05776,7.85792 -0.18707,4.30309 -3.92896,3.18017 -1.12241,2.99362 1.49655,2.99361 1.49655,4.3031 v 9.7286 l 2.99362,3.55431 2.05775,1.68413 4.8643,-0.74879 2.80655,1.31 -0.56121,4.8643 -4.67723,9.91568 -5.42551,10.28981 -4.49016,8.04498 -6.92258,4.30258 -5.79964,5.05189 -2.24483,4.11551 -5.42602,2.05828 -2.9931,3.36775 0.37413,2.80603 1.49655,2.80655 v 5.98671 l -0.18706,4.3031 -6.92206,3.55482 -6.73551,2.9931 1.79628,2.75591 c 12.08646,-3.44843 23.53853,-9.02043 33.51474,-16.66566 l 7.15822,-9.66349 7.48378,-5.05137 1.12242,-6.73499 13.84463,-21.88962 -2.43241,-4.3031 5.42551,-12.90877 3.36775,-3.74189 1.30948,-3.36775 -0.5612,-1.30948 -3.74138,2.43241 -6.1743,2.43189 v -8.41913 l -0.93534,-4.8643 -4.11603,-4.8643 -0.56121,-3.92896 -2.80603,-9.54154 -3.36775,-5.79964 z" /><path
       style="fill:#a4988a;fill-opacity:1;stroke-width:1"
       d="m 31.430882,118.24004 3.5547,-4.67721 4.11594,-2.24507 2.24507,2.43216 0.93543,5.23848 1.30964,5.61266 7.85773,3.36759 4.30302,2.80634 0.37417,3.1805 -5.23845,2.61924 -5.61269,0.37418 -1.12252,4.30304 4.86431,3.18051 v 2.99342 l -4.30305,3.1805 v 3.74178 l 3.1805,5.42557 5.0514,13.0962 5.42557,12.72203 5.42558,1.6838 4.30305,3.55469 4.49011,3.1805 7.85773,-1.49671 c 0,0 3.74179,-0.74835 4.49013,-0.56126 0.74835,0.18709 10.1028,5.79975 10.1028,5.79975 l 8.231898,4.49013 9.54151,0.37417 2.43216,2.43216 0.37417,4.8643 -0.56126,4.86431 4.30303,10.47696 2.61924,7.67064 -6.73518,3.74177 -5.0514,3.55468 -8.60608,0.74836 c 0,0 -7.109378,-0.37418 -7.857718,-0.74836 -0.74835,-0.37417 -6.73518,-2.61924 -6.73518,-2.61924 l -3.74179,-4.11595 -10.85115,-2.05797 -4.30302,-2.24507 -9.23727,-8.53992 -16.53646,-10.84792 -4.63021,-1.98437 v -5.55625 l -3.43958,-5.42396 -1.05833,-6.21771 v -4.63021 l -4.49792,-7.14375 -4.10104,-3.83645 -4.89479,-0.52917 -3.96875,-7.01146 h -1.19063 l -2.24895,4.63021 -2.3812504,-4.7625 -3.70417,-11.37708 c 0,0 0.13229,-8.33438 0.13229,-9.26042 0,-0.92604 1.85208,-9.65729 1.98438,-10.45104 0.13229,-0.79375 1.05833,-4.63021 1.05833,-4.63021 l 2.6458304,-2.38125 2.24896,-0.13229 1.98438,1.71979 1.71979,2.64583 2.11666,2.11667 2.24896,-3.43958 0.52917,-4.36563 2.11667,-3.70416 1.98437,-1.98438 0.79375,3.70417 c 0,0 -1.45521,3.70416 -1.45521,4.36562 0,0.66146 0.92604,6.74688 0.92604,6.74688 l 1.85209,3.96875 2.51354,2.11666 c 0,0 2.38125,-4.36562 2.38125,-5.95312 0,-1.5875 0.39687,-8.33438 0.39687,-10.18646 0,-1.85208 -2.95817,-8.60887 -2.95817,-8.60887 z"
       id="path46" /></g></svg>
