<?xml version="1.0" encoding="UTF-8" standalone="no"?>
<!-- Created with Inkscape (http://www.inkscape.org/) -->

<svg
   width="210mm"
   height="297mm"
   viewBox="0 0 210 297"
   version="1.1"
   id="svg1"
   xml:space="preserve"
   xmlns="http://www.w3.org/2000/svg"
   xmlns:svg="http://www.w3.org/2000/svg"><defs
     id="defs1" /><g
     id="layer1"><circle
       style="fill:#d1d3d5;fill-opacity:1;stroke-width:1.64227"
       id="circle25"
       cx="103.80812"
       cy="154.33144"
       r="100" /><path
       id="path1"
       style="fill:#ffffff;stroke-width:1.64227"
       d="M 103.6531 54.066984 A 100 100 0 0 0 3.653007 154.06708 A 100 100 0 0 0 18.306376 205.89338 A 100 100 0 0 0 96.543978 243.96392 A 100 100 0 0 0 196.54356 143.96382 A 100 100 0 0 0 182.67257 93.181909 A 100 100 0 0 0 103.6531 54.066984 z " /><ellipse
       style="fill:#b7b9b9;fill-opacity:1;stroke-width:0.767726"
       id="ellipse2"
       cx="148.0974"
       cy="127.90275"
       rx="13.961245"
       ry="13.216595" /><ellipse
       style="fill:#d1d3d5;fill-opacity:1;stroke-width:0.719228"
       id="path2"
       cx="148.62482"
       cy="128.64267"
       rx="12.927706"
       ry="12.526887" /><ellipse
       style="fill:#b7b9b9;fill-opacity:1;stroke-width:0.204152"
       id="ellipse3"
       cx="178.0368"
       cy="115.64011"
       rx="3.7161407"
       ry="3.511143" /><ellipse
       style="fill:#d1d3d5;fill-opacity:1;stroke-width:0.191256"
       id="ellipse4"
       cx="178.17719"
       cy="115.83668"
       rx="3.4410379"
       ry="3.327914" /><ellipse
       style="fill:#b7b9b9;fill-opacity:1;stroke-width:0.290721"
       id="ellipse5"
       cx="164.71918"
       cy="194.13161"
       rx="5.3763733"
       ry="4.9214649" /><ellipse
       style="fill:#d1d3d5;fill-opacity:1;stroke-width:0.272356"
       id="ellipse6"
       cx="164.92229"
       cy="194.40714"
       rx="4.9783654"
       ry="4.664638" /><ellipse
       style="fill:#b7b9b9;fill-opacity:1;stroke-width:0.106582"
       id="ellipse7"
       cx="135.27107"
       cy="196.0482"
       rx="1.8655317"
       ry="1.9063121" /><ellipse
       style="fill:#d1d3d5;fill-opacity:1;stroke-width:0.0998492"
       id="ellipse8"
       cx="135.34154"
       cy="196.15494"
       rx="1.7274282"
       ry="1.8068311" /><ellipse
       style="fill:#b7b9b9;fill-opacity:1;stroke-width:1.1948"
       id="ellipse9"
       cx="97.169609"
       cy="217.73785"
       rx="21.779423"
       ry="20.519932" /><ellipse
       style="fill:#d1d3d5;fill-opacity:1;stroke-width:1.11933"
       id="ellipse10"
       cx="97.992386"
       cy="218.88667"
       rx="20.167114"
       ry="19.449097" /><ellipse
       style="fill:#b7b9b9;fill-opacity:1;stroke-width:0.174228"
       id="ellipse11"
       cx="62.038666"
       cy="227.07054"
       rx="3.1806879"
       ry="2.9877746" /><ellipse
       style="fill:#d1d3d5;fill-opacity:1;stroke-width:0.163223"
       id="ellipse12"
       cx="62.158825"
       cy="227.23781"
       rx="2.9452248"
       ry="2.8318572" /><ellipse
       style="fill:#b7b9b9;fill-opacity:1;stroke-width:0.101361"
       id="ellipse13"
       cx="36.336246"
       cy="169.08086"
       rx="1.7599512"
       ry="1.8275573" /><ellipse
       style="fill:#d1d3d5;fill-opacity:1;stroke-width:0.0949583"
       id="ellipse14"
       cx="36.402737"
       cy="169.18317"
       rx="1.6296638"
       ry="1.732186" /><ellipse
       style="fill:#b7b9b9;fill-opacity:1;stroke-width:0.305533"
       id="ellipse15"
       cx="51.706036"
       cy="134.5891"
       rx="5.5055299"
       ry="5.3082123" /><ellipse
       style="fill:#d1d3d5;fill-opacity:1;stroke-width:0.286234"
       id="ellipse16"
       cx="51.914032"
       cy="134.88626"
       rx="5.0979609"
       ry="5.0312028" /><ellipse
       style="fill:#b7b9b9;fill-opacity:1;stroke-width:0.636655"
       id="ellipse17"
       cx="66.042564"
       cy="114.17187"
       rx="11.834266"
       ry="10.72256" /><ellipse
       style="fill:#d1d3d5;fill-opacity:1;stroke-width:0.596441"
       id="ellipse18"
       cx="66.489647"
       cy="114.77216"
       rx="10.958187"
       ry="10.163003" /><ellipse
       style="fill:#b7b9b9;fill-opacity:1;stroke-width:0.301496"
       id="ellipse19"
       cx="82.833084"
       cy="132.78139"
       rx="5.6346874"
       ry="5.0503883" /><ellipse
       style="fill:#d1d3d5;fill-opacity:1;stroke-width:0.282452"
       id="ellipse20"
       cx="83.045952"
       cy="133.06412"
       rx="5.2175574"
       ry="4.7868338" /><ellipse
       style="fill:#b7b9b9;fill-opacity:1;stroke-width:0.210707"
       id="ellipse21"
       cx="80.249924"
       cy="89.774506"
       rx="3.8264773"
       ry="3.6323438" /><ellipse
       style="fill:#d1d3d5;fill-opacity:1;stroke-width:0.197397"
       id="ellipse22"
       cx="80.394478"
       cy="89.977852"
       rx="3.5432069"
       ry="3.4427898" /><ellipse
       style="fill:#b7b9b9;fill-opacity:1;stroke-width:0.152418"
       id="ellipse23"
       cx="59.972134"
       cy="88.6138"
       rx="2.6640563"
       ry="2.7299519" /><ellipse
       style="fill:#d1d3d5;fill-opacity:1;stroke-width:0.14279"
       id="ellipse24"
       cx="60.072777"
       cy="88.766624"
       rx="2.4668388"
       ry="2.5874891" /></g></svg>
