<?xml version="1.0" encoding="UTF-8" standalone="no"?>
<!-- Created with Inkscape (http://www.inkscape.org/) -->

<svg
   width="210mm"
   height="297mm"
   viewBox="0 0 210 297"
   version="1.1"
   id="svg1"
   xml:space="preserve"
   sodipodi:docname="uranus.svg"
   inkscape:version="1.3.2 (091e20e, 2023-11-25, custom)"
   xmlns:inkscape="http://www.inkscape.org/namespaces/inkscape"
   xmlns:sodipodi="http://sodipodi.sourceforge.net/DTD/sodipodi-0.dtd"
   xmlns="http://www.w3.org/2000/svg"
   xmlns:svg="http://www.w3.org/2000/svg"><sodipodi:namedview
     id="namedview1"
     pagecolor="#ffffff"
     bordercolor="#000000"
     borderopacity="0.25"
     inkscape:showpageshadow="2"
     inkscape:pageopacity="0.0"
     inkscape:pagecheckerboard="0"
     inkscape:deskcolor="#d1d1d1"
     inkscape:document-units="mm"
     inkscape:zoom="0.72426347"
     inkscape:cx="602.68123"
     inkscape:cy="374.86358"
     inkscape:window-width="1920"
     inkscape:window-height="1009"
     inkscape:window-x="-8"
     inkscape:window-y="-8"
     inkscape:window-maximized="1"
     inkscape:current-layer="svg1" /><defs
     id="defs1" /><g
     id="layer1"><path
       id="path22"
       style="fill:#dedede;fill-opacity:0;stroke-width:6.3516"
       d="M 205.73396,155.22662 A 102.02936,14.9717 0 0 1 103.70461,170.1983 102.02936,14.9717 0 0 1 1.6752407,155.22662 102.02936,14.9717 0 0 1 103.70461,140.25491 102.02936,14.9717 0 0 1 205.73396,155.22662 Z" /><path
       id="path16"
       style="fill:#dedede;fill-opacity:0;stroke-width:5.54272"
       d="M 195.97463,155.0048 A 92.824545,12.531867 0 0 1 103.15009,167.53668 92.824545,12.531867 0 0 1 10.325546,155.0048 92.824545,12.531867 0 0 1 103.15009,142.47294 92.824545,12.531867 0 0 1 195.97463,155.0048 Z" /><path
       id="path17"
       style="fill:#dedede;fill-opacity:0;stroke-width:4.6572"
       d="m 180.67025,154.78301 a 79.627269,10.313837 0 0 1 -79.62726,10.31383 79.627269,10.313837 0 0 1 -79.627273,-10.31383 79.627269,10.313837 0 0 1 79.627273,-10.31385 79.627269,10.313837 0 0 1 79.62726,10.31385 z" /><path
       id="path18"
       style="fill:#dedede;fill-opacity:0;stroke-width:3.7083"
       d="M 330.42016,154.6721 A 65.210077,7.984906 0 0 1 265.21009,162.65702 65.210077,7.984906 0 0 1 200,154.6721 a 65.210077,7.984906 0 0 1 65.21009,-7.98489 65.210077,7.984906 0 0 1 65.21007,7.98489 z" /><path
       id="path1"
       style="fill:#4670fd;stroke-width:0.548612;fill-opacity:1"
       d="m 149.53096,153.86374 a 42.932526,42.932526 0 0 1 -42.93255,42.93252 42.932526,42.932526 0 0 1 -42.93251,-42.93252 42.932526,42.932526 0 0 1 42.93251,-42.93252 42.932526,42.932526 0 0 1 42.93255,42.93252 z" /><path
       id="path2"
       style="fill:#456af8;fill-opacity:1;stroke-width:0.429327"
       d="m 106.59834,110.93119 a 42.932526,42.932526 0 0 0 -19.041567,4.5386 l 35.525757,-1.24642 a 42.932526,42.932526 0 0 0 -16.48419,-3.29218 z" /><path
       id="path3"
       style="fill:#2e3a8e;fill-opacity:1;stroke-width:0.429327"
       d="m 135.38001,122.00957 -59.694292,2.20571 a 42.932526,42.932526 0 0 0 -4.693462,5.75483 l 4.62023,1.42169 13.174506,0.94092 18.977428,-0.94092 h 16.62488 l 11.60594,-0.78427 6.46589,-0.33458 a 42.932526,42.932526 0 0 0 -7.08112,-8.26338 z" /><path
       id="path4"
       style="fill:#62a8f7;fill-opacity:1;stroke-width:0.429327"
       d="m 125.8234,115.49065 -43.228304,2.8489 a 42.932526,42.932526 0 0 0 -2.841808,2.12742 l 1.348704,-0.0541 24.309858,-0.47055 20.38893,0.31369 6.67995,-0.63628 a 42.932526,42.932526 0 0 0 -6.65733,-4.12927 z" /><path
       id="path5"
       style="fill:#7a593a;fill-opacity:0.0782609;stroke-width:0.429327"
       d="m 67.650836,135.83655 a 42.932526,42.932526 0 0 0 -1.049847,2.72509 l 4.149676,1.45608 17.722615,3.76429 21.33005,0.94091 22.58467,-1.41147 12.70392,-0.78426 2.60399,-1.07738 a 42.932526,42.932526 0 0 0 -1.92375,-5.12252 l -2.24856,0.0833 -8.31242,1.56833 -10.66505,1.09795 -15.05652,-0.94112 H 94.589954 L 79.84714,137.66541 c 0,0 -7.685082,-0.7843 -8.312446,-0.94113 -0.44388,-0.11086 -2.422218,-0.55668 -3.883858,-0.88765 z" /><path
       id="path6"
       style="fill:#3249b5;fill-opacity:1;stroke-width:0.429327"
       d="m 142.88886,130.94874 -6.35805,1.50289 -15.52687,0.47034 -13.95877,1.56854 -17.095406,-0.62741 -14.429129,-1.41147 -5.496337,-0.96198 a 42.932526,42.932526 0 0 0 -1.307879,2.39517 l 8.686266,1.38976 13.174485,0.78426 17.56598,0.31372 19.29118,-1.56833 13.01741,-0.15694 4.00789,-1.02545 a 42.932526,42.932526 0 0 0 -1.57077,-2.67318 z" /><path
       style="fill:#0d376b;fill-opacity:0.05507246;stroke:none;stroke-width:4.29327;stroke-dasharray:none;stroke-opacity:1"
       d="m 65.182776,142.68406 -0.784195,3.76412 -0.392087,3.60728 11.84129,1.01946 44.492036,4.70621 28.94528,1.10899 0.3327,-3.65975 -0.49904,-4.7133 -22.18029,-1.66352 -27.329653,-2.05219 z"
       id="path8" /><path
       id="path21"
       style="fill:#0d376b;fill-opacity:0.05507246;stroke-width:5.54272"
       d="M 195.97463,155.0048 A 92.824545,12.531867 0 0 1 103.15009,167.53668 92.824545,12.531867 0 0 1 10.325546,155.0048 92.824545,12.531867 0 0 1 103.15009,142.47294 92.824545,12.531867 0 0 1 195.97463,155.0048 Z" /><path
       id="path11"
       style="fill:#0d376b;fill-opacity:0.05507246;stroke-width:6.3516"
       d="M 205.73396,155.22662 A 102.02936,14.9717 0 0 1 103.70461,170.1983 102.02936,14.9717 0 0 1 1.6752407,155.22662 102.02936,14.9717 0 0 1 103.70461,140.25491 102.02936,14.9717 0 0 1 205.73396,155.22662 Z" /><path
       id="path19"
       style="fill:#0d376b;fill-opacity:0.05507246;stroke-width:3.7083"
       d="m 162.7042,154.6721 a 65.210077,7.984906 0 0 1 -65.210071,7.98492 65.210077,7.984906 0 0 1 -65.210088,-7.98492 65.210077,7.984906 0 0 1 65.210088,-7.98489 65.210077,7.984906 0 0 1 65.210071,7.98489 z" /><path
       id="path20"
       style="fill:#0d376b;fill-opacity:0.05507246;stroke-width:4.6572"
       d="m 180.67025,154.78301 a 79.627269,10.313837 0 0 1 -79.62726,10.31383 79.627269,10.313837 0 0 1 -79.627273,-10.31383 79.627269,10.313837 0 0 1 79.627273,-10.31385 79.627269,10.313837 0 0 1 79.62726,10.31385 z" /><path
       id="path23"
       style="fill:#4f7ffe;fill-opacity:1;stroke-width:0.429327"
       d="m 106.63693,196.83839 a 42.932526,42.932526 0 0 0 19.04159,-4.53861 l -35.525764,1.24643 a 42.932526,42.932526 0 0 0 16.484174,3.29218 z" /><path
       id="path24"
       style="fill:#364ec6;fill-opacity:1;stroke-width:0.429327"
       d="m 77.855283,185.76004 59.694297,-2.20574 a 42.932526,42.932526 0 0 0 4.69346,-5.75483 l -4.62025,-1.42168 -13.17448,-0.9409 -18.97745,0.9409 H 88.846006 l -11.605947,0.78429 -6.465881,0.33454 a 42.932526,42.932526 0 0 0 7.081105,8.26342 z" /><path
       id="path25"
       style="fill:#364abf;fill-opacity:1;stroke-width:0.429327"
       d="m 87.411911,192.27893 43.228279,-2.8489 a 42.932526,42.932526 0 0 0 2.84183,-2.12741 l -1.3487,0.054 -24.30986,0.47058 -20.388927,-0.31372 -6.679968,0.63629 a 42.932526,42.932526 0 0 0 6.657346,4.12927 z" /><path
       id="path26"
       style="fill:#0d376b;fill-opacity:0.14492756;stroke-width:0.429327"
       d="m 70.346439,176.82084 6.358055,-1.50287 15.526882,-0.47034 13.958734,-1.56856 17.09544,0.62744 14.42911,1.41146 5.49634,0.96199 a 42.932526,42.932526 0 0 0 1.30786,-2.3952 l -8.68624,-1.38975 -13.17451,-0.78428 -17.56598,-0.31369 -19.291151,1.56834 -13.017415,0.15693 -4.007898,1.02542 a 42.932526,42.932526 0 0 0 1.570773,2.6732 z" /></g></svg>
