<?xml version="1.0" encoding="UTF-8" standalone="no"?>
<!-- Created with Inkscape (http://www.inkscape.org/) -->

<svg
   width="210mm"
   height="297mm"
   viewBox="0 0 210 297"
   version="1.1"
   id="svg1"
   xml:space="preserve"
   xmlns="http://www.w3.org/2000/svg"
   xmlns:svg="http://www.w3.org/2000/svg"><defs
     id="defs1" /><g
     id="layer1"><path
       id="path1"
       style="fill:#f3bc74;stroke-width:1.45226;fill-opacity:0.85217392"
       d="m 204.74908,148.95206 a 100,100 0 0 1 -100,100 100,100 0 0 1 -100.0000032,-100 100,100 0 0 1 100.0000032,-100.000003 100,100 0 0 1 100,100.000003 z" /><path
       id="path2"
       style="fill:#f6cd97;stroke-width:1.45226"
       d="M 104.74916 48.952051 A 100 100 0 0 0 4.7490641 148.95215 A 100 100 0 0 0 39.933997 225.02916 A 100 100 0 0 0 85.963745 236.51683 A 100 100 0 0 0 185.96384 136.51673 A 100 100 0 0 0 150.21874 59.91934 A 100 100 0 0 0 104.74916 48.952051 z " /><path
       id="rect1"
       style="fill:#e9bc83;stroke-width:0.781421"
       d="m 26.007515,87.297281 a 100,100 0 0 0 -9.965283,15.469339 c 1.585596,1.45846 3.697538,2.35438 6.031673,2.35438 H 90.78599 c 4.937183,0 8.911601,-3.97494 8.911601,-8.912118 0,-4.937184 -3.974418,-8.911601 -8.911601,-8.911601 z" /><path
       id="rect2"
       style="fill:#e9bc83;stroke-width:0.781421"
       d="M 16.490838,102.14096 A 100,100 0 0 0 8.9352274,119.96468 H 64.806752 c 4.937183,0 8.911601,-3.97442 8.911601,-8.9116 0,-4.93719 -3.974418,-8.91212 -8.911601,-8.91212 z" /><path
       id="rect3"
       style="fill:#e9bc83;stroke-width:0.796057"
       d="M 9.3194295,118.74288 A 100,100 0 0 0 5.2793661,137.98719 H 22.926351 c 5.330726,0 9.622668,-4.29142 9.622668,-9.62215 0,-5.33073 -4.291942,-9.62216 -9.622668,-9.62216 z" /><path
       id="rect4"
       style="fill:#e9bc83;stroke-width:0.781421"
       d="m 5.6503924,135.61016 c -0.112459,0.8079 -0.2852899,1.55913 -0.3779198,2.36927 -0.4140452,3.62122 -0.5595895,7.32087 -0.5760272,10.96687 0.073303,1.49808 0.022444,3.00016 0.1630546,4.49343 l 64.962169,-0.006 c 4.937183,-4.4e-4 8.912117,-3.97493 8.912117,-8.91212 0,-4.93718 -3.974934,-8.9116 -8.912117,-8.9116 z" /><rect
       style="fill:#f6cd97;fill-opacity:1;stroke-width:0.746674"
       id="rect5"
       width="86.535774"
       height="16.27389"
       x="18.986206"
       y="120.11683"
       ry="8.1369448" /><path
       id="rect6"
       style="fill:#e9bc83;stroke-width:0.781421"
       d="m 80.362314,52.015257 a 100,100 0 0 0 -33.61707,15.465206 h 27.580229 c 4.937183,0 8.912118,-3.974934 8.912118,-8.912117 0,-2.600615 -1.109898,-4.926793 -2.875277,-6.553089 z" /><path
       id="rect7"
       style="fill:#ffddb1;stroke-width:0.781421"
       d="m 145.89187,138.55434 c -4.93718,-0.001 -8.91211,3.97493 -8.91211,8.91211 0,4.93719 3.97493,8.90882 8.91211,8.91161 l 58.55871,0.0331 c 0.26843,-2.46237 0.32953,-4.96694 0.41444,-7.44244 -0.004,-3.47878 -0.29371,-6.93841 -0.66042,-10.39781 z" /><path
       id="rect8"
       style="fill:#ffddb1;stroke-width:0.781421"
       d="m 153.10811,187.42436 c -4.93719,0 -8.91212,3.97442 -8.91212,8.9116 0,4.93719 3.97493,8.91212 8.91212,8.91212 h 34.29971 a 100,100 0 0 0 9.60975,-17.82372 z" /><path
       id="rect9"
       style="fill:#ffddb1;stroke-width:0.781421"
       d="m 116.61407,202.40366 c -4.93719,0 -8.91212,3.97442 -8.91212,8.9116 0,4.93719 3.97493,8.903 8.91212,8.91212 l 58.16854,0.10747 c 5.32775,-5.16369 9.9816,-11.01175 14.03945,-17.22323 -1.07255,-0.45543 -2.25344,-0.70797 -3.49591,-0.70797 z" /></g></svg>
